<svg xmlns="http://www.w3.org/2000/svg" xmlns:xlink="http://www.w3.org/1999/xlink" width="347" zoomAndPan="magnify" viewBox="0 0 260.25 89.999999" height="120" preserveAspectRatio="xMidYMid meet" version="1.0"><defs><g/><clipPath id="d21e3fa055"><path d="M 116 0.128906 L 188 0.128906 L 188 9 L 116 9 Z M 116 0.128906 " clip-rule="nonzero"/></clipPath><clipPath id="0129006b1c"><path d="M 176 0.128906 L 184 0.128906 L 184 69 L 176 69 Z M 176 0.128906 " clip-rule="nonzero"/></clipPath><clipPath id="3945db8464"><path d="M 76 82 L 148 82 L 148 89.871094 L 76 89.871094 Z M 76 82 " clip-rule="nonzero"/></clipPath><clipPath id="b12fb929ea"><path d="M 80 21 L 88 21 L 88 89.871094 L 80 89.871094 Z M 80 21 " clip-rule="nonzero"/></clipPath></defs><g fill="#4945ff" fill-opacity="1"><g transform="translate(99.511235, 63.522495)"><g><path d="M 17.59375 -21.285156 C 14.859375 -22.578125 12.175781 -22.578125 11.9375 -22.578125 C 9.492188 -22.578125 7.144531 -24.015625 7.144531 -26.796875 C 7.144531 -29.863281 9.300781 -31.445312 11.9375 -31.445312 C 14.429688 -31.445312 16.539062 -30.152344 16.632812 -27.417969 C 16.632812 -27.277344 16.875 -27.035156 17.160156 -27.035156 L 23.152344 -27.035156 C 23.488281 -27.035156 23.730469 -27.277344 23.679688 -27.417969 C 23.585938 -33.9375 18.503906 -38.347656 11.9375 -38.347656 C 5.800781 -38.347656 0 -33.988281 0 -26.796875 C 0 -22.339844 2.253906 -18.933594 6.230469 -17.113281 C 9.011719 -15.820312 11.601562 -15.820312 11.9375 -15.820312 C 14.09375 -15.722656 16.730469 -13.996094 16.730469 -11.167969 C 16.730469 -8.628906 14.476562 -6.902344 11.9375 -6.902344 C 11.9375 -6.902344 11.9375 -6.902344 11.886719 -6.902344 L 11.886719 0 C 11.9375 0 11.9375 0 11.9375 0 C 18.070312 0 23.824219 -3.980469 23.824219 -11.167969 C 23.824219 -15.675781 21.621094 -19.414062 17.59375 -21.285156 Z M 17.59375 -21.285156 "/></g></g></g><g fill="#4945ff" fill-opacity="1"><g transform="translate(129.805653, 63.522495)"><g><path d="M 7.335938 -21.714844 L 7.335938 -37.917969 C 7.335938 -38.109375 7.144531 -38.347656 6.808594 -38.347656 L 0.527344 -38.347656 C 0.238281 -38.347656 0 -38.109375 0 -37.917969 L 0 -21.714844 Z M 28.667969 -38.347656 L 22.386719 -38.347656 C 22.097656 -38.347656 21.859375 -38.109375 21.859375 -37.917969 L 21.859375 -14.332031 L 7.335938 -14.332031 L 7.335938 -14.382812 L 0 -14.382812 L 0 -0.429688 C 0 -0.238281 0.238281 0 0.527344 0 L 6.808594 0 C 7.144531 0 7.335938 -0.238281 7.335938 -0.429688 L 7.335938 -7.191406 L 21.859375 -7.191406 L 21.859375 -0.429688 C 21.859375 -0.238281 22.097656 0 22.386719 0 L 28.667969 0 C 29 0 29.195312 -0.238281 29.195312 -0.429688 L 29.195312 -37.917969 C 29.195312 -38.109375 29 -38.347656 28.667969 -38.347656 Z M 28.667969 -38.347656 "/></g></g></g><g clip-path="url(#d21e3fa055)"><path stroke-linecap="butt" transform="matrix(-0.747845, 0, 0, -0.747845, 183.746079, 8.292439)" fill="none" stroke-linejoin="miter" d="M -0.0000195678 4.998031 L 84.435323 4.998031 " stroke="#4945ff" stroke-width="10" stroke-opacity="1" stroke-miterlimit="4"/></g><g clip-path="url(#0129006b1c)"><path stroke-linecap="butt" transform="matrix(0, -0.747845, 0.747845, 0, 176.271474, 64.7235)" fill="none" stroke-linejoin="miter" d="M 0.0011287 5.001364 L 82.462047 5.001364 " stroke="#4945ff" stroke-width="10" stroke-opacity="1" stroke-miterlimit="4"/></g><g clip-path="url(#3945db8464)"><path stroke-linecap="butt" transform="matrix(0.747845, 0, 0, 0.747845, 80.3034, 82.096978)" fill="none" stroke-linejoin="miter" d="M 0.00172222 4.999646 L 84.431841 4.999646 " stroke="#4945ff" stroke-width="10" stroke-opacity="1" stroke-miterlimit="4"/></g><g clip-path="url(#b12fb929ea)"><path stroke-linecap="butt" transform="matrix(0, 0.747845, -0.747845, 0, 87.777281, 25.665918)" fill="none" stroke-linejoin="miter" d="M -0.00248157 4.998656 L 82.46366 4.998656 " stroke="#4945ff" stroke-width="10" stroke-opacity="1" stroke-miterlimit="4"/></g></svg>